HIERARCHY
ROOT hip
{
  OFFSET 0 0 0
  CHANNELS 6 Xposition Yposition Zposition Zrotation Yrotation Xrotation
  JOINT abdomen
  {
    OFFSET 0 20.6881 -0.73152
    CHANNELS 3 Zrotation Xrotation Yrotation
    JOINT chest
    {
      OFFSET 0 11.7043 -0.48768
      CHANNELS 3 Zrotation Xrotation Yrotation
      JOINT neck
      {
        OFFSET 0 22.1894 -2.19456
        CHANNELS 3 Zrotation Xrotation Yrotation
        JOINT head
        {
          OFFSET -0.24384 7.07133 1.2192
          CHANNELS 3 Zrotation Xrotation Yrotation
          JOINT leftEye
          {
            OFFSET 4.14528 8.04674 8.04672
            CHANNELS 3 Zrotation Xrotation Yrotation
            End Site
            {
              OFFSET 1 0 0
            }
          }
          JOINT rightEye
          {
            OFFSET -3.6576 8.04674 8.04672
            CHANNELS 3 Zrotation Xrotation Yrotation
            End Site
            {
              OFFSET 1 0 0
            }
          }
        }
      }
      JOINT rCollar
      {
        OFFSET -2.68224 19.2634 -4.8768
        CHANNELS 3 Zrotation Xrotation Yrotation
        JOINT rShldr
        {
          OFFSET -8.77824 -1.95073 1.46304
          CHANNELS 3 Zrotation Xrotation Yrotation
          JOINT rForeArm
          {
            OFFSET -28.1742 -1.7115 0.48768
            CHANNELS 3 Zrotation Xrotation Yrotation
            JOINT rHand
            {
              OFFSET -22.5879 0.773209 7.07136
              CHANNELS 3 Zrotation Xrotation Yrotation
              JOINT rThumb1
              {
                OFFSET -1.2192 -0.487915 3.41376
                CHANNELS 3 Zrotation Xrotation Yrotation
                JOINT rThumb2
                {
                  OFFSET -3.37035 -0.52449 3.41376
                  CHANNELS 3 Zrotation Xrotation Yrotation
                  End Site
                  {
                    OFFSET -1.78271 -1.18214 1.43049
                  }
                }
              }
              JOINT rIndex1
              {
                OFFSET -7.75947 0.938293 5.60832
                CHANNELS 3 Zrotation Xrotation Yrotation
                JOINT rIndex2
                {
                  OFFSET -2.54057 -0.884171 1.56538
                  CHANNELS 3 Zrotation Xrotation Yrotation
                  End Site
                  {
                    OFFSET -1.62519 -0.234802 1.16502
                  }
                }
              }
              JOINT rMid1
              {
                OFFSET -8.24714 1.18213 3.41376
                CHANNELS 3 Zrotation Xrotation Yrotation
                JOINT rMid2
                {
                  OFFSET -3.10165 -0.590103 1.0647
                  CHANNELS 3 Zrotation Xrotation Yrotation
                  End Site
                  {
                    OFFSET -2.48547 -0.328903 0.83742
                  }
                }
              }
              JOINT rRing1
              {
                OFFSET -8.82822 0.546677 1.51678
                CHANNELS 3 Zrotation Xrotation Yrotation
                JOINT rRing2
                {
                  OFFSET -2.60934 -0.819778 -0.0198488
                  CHANNELS 3 Zrotation Xrotation Yrotation
                  End Site
                  {
                    OFFSET -2.33842 -0.294052 0.168128
                  }
                }
              }
              JOINT rPinky1
              {
                OFFSET -8.27202 -0.0477905 -0.4584
                CHANNELS 3 Zrotation Xrotation Yrotation
                JOINT rPinky2
                {
                  OFFSET -1.82734 -0.647385 -0.700984
                  CHANNELS 3 Zrotation Xrotation Yrotation
                  End Site
                  {
                    OFFSET -1.69225 -0.51767 -0.607171
                  }
                }
              }
            }
          }
        }
      }
      JOINT lCollar
      {
        OFFSET 2.68224 19.2634 -4.8768
        CHANNELS 3 Zrotation Xrotation Yrotation
        JOINT lShldr
        {
          OFFSET 8.77824 -1.95073 1.46304
          CHANNELS 3 Zrotation Xrotation Yrotation
          JOINT lForeArm
          {
            OFFSET 28.1742 -1.7115 0.48768
            CHANNELS 3 Zrotation Xrotation Yrotation
            JOINT lHand
            {
              OFFSET 22.5879 0.773209 7.07136
              CHANNELS 3 Zrotation Xrotation Yrotation
              JOINT lThumb1
              {
                OFFSET 1.2192 -0.487915 3.41376
                CHANNELS 3 Zrotation Xrotation Yrotation
                JOINT lThumb2
                {
                  OFFSET 3.37035 -0.52449 3.41376
                  CHANNELS 3 Zrotation Xrotation Yrotation
                  End Site
                  {
                    OFFSET 1.78271 -1.18214 1.43049
                  }
                }
              }
              JOINT lIndex1
              {
                OFFSET 7.75947 0.938293 5.60832
                CHANNELS 3 Zrotation Xrotation Yrotation
                JOINT lIndex2
                {
                  OFFSET 2.54057 -0.884171 1.56538
                  CHANNELS 3 Zrotation Xrotation Yrotation
                  End Site
                  {
                    OFFSET 1.62519 -0.234802 1.16502
                  }
                }
              }
              JOINT lMid1
              {
                OFFSET 8.24714 1.18213 3.41376
                CHANNELS 3 Zrotation Xrotation Yrotation
                JOINT lMid2
                {
                  OFFSET 3.10165 -0.590103 1.0647
                  CHANNELS 3 Zrotation Xrotation Yrotation
                  End Site
                  {
                    OFFSET 2.48547 -0.328903 0.83742
                  }
                }
              }
              JOINT lRing1
              {
                OFFSET 8.82822 0.546677 1.51678
                CHANNELS 3 Zrotation Xrotation Yrotation
                JOINT lRing2
                {
                  OFFSET 2.60934 -0.819778 -0.0198488
                  CHANNELS 3 Zrotation Xrotation Yrotation
                  End Site
                  {
                    OFFSET 2.33842 -0.294052 0.168128
                  }
                }
              }
              JOINT lPinky1
              {
                OFFSET 8.27202 -0.0477905 -0.4584
                CHANNELS 3 Zrotation Xrotation Yrotation
                JOINT lPinky2
                {
                  OFFSET 1.82734 -0.647385 -0.700984
                  CHANNELS 3 Zrotation Xrotation Yrotation
                  End Site
                  {
                    OFFSET 1.69225 -0.51767 -0.607171
                  }
                }
              }
            }
          }
        }
      }
    }
  }
  JOINT rButtock
  {
    OFFSET -8.77824 4.35084 1.2192
    CHANNELS 3 Zrotation Xrotation Yrotation
    JOINT rThigh
    {
      OFFSET 0 -1.70687 -2.19456
      CHANNELS 3 Zrotation Xrotation Yrotation
      JOINT rShin
      {
        OFFSET 0 -36.8199 0.73152
        CHANNELS 3 Zrotation Xrotation Yrotation
        JOINT rFoot
        {
          OFFSET 0.73152 -45.1104 -5.12064
          CHANNELS 3 Zrotation Xrotation Yrotation
          End Site
          {
            OFFSET -1.1221 -3.69964 12.103
          }
        }
      }
    }
  }
  JOINT lButtock
  {
    OFFSET 8.77824 4.35084 1.2192
    CHANNELS 3 Zrotation Xrotation Yrotation
    JOINT lThigh
    {
      OFFSET 0 -1.70687 -2.19456
      CHANNELS 3 Zrotation Xrotation Yrotation
      JOINT lShin
      {
        OFFSET 0 -36.8199 0.73152
        CHANNELS 3 Zrotation Xrotation Yrotation
        JOINT lFoot
        {
          OFFSET -0.73152 -45.1104 -5.12064
          CHANNELS 3 Zrotation Xrotation Yrotation
          End Site
          {
            OFFSET 1.1221 -3.69964 12.103
          }
        }
      }
    }
  }
}
MOTION
Frames:	5
Frame Time:	0.00833333
47.1117 41.6338 71.0007 3.9402 -1.896 -0.8367 0.62759 32.2358 -4.5537 0.952476 -3.9951 -1.21572 -4.16758 22.4625 10.644 9.46433 -55.3263 27.4259 -0.0 0.0 0.0 -0.0 0.0 0.0 -3.68299e-14 -7.35493e-14 -7.17892e-14 20.1612 56.4775 27.0069 -14.9621 -56.039 125.661 -3.06308 -43.4438 -7.65699 3.54704e-10 5.96364e-10 1.35628e-10 6.09327e-10 9.97054e-10 2.47931e-10 3.54707e-10 5.96368e-10 1.35617e-10 7.73091 5.47488 0.417314 3.54702e-10 5.96364e-10 1.35623e-10 2.90554 0.965183 0.102902 3.54712e-10 5.96365e-10 1.35625e-10 10.2786 0.731801 0.0259123 3.54697e-10 5.96366e-10 1.35634e-10 2.22167 -0.733487 -0.20892 -3.67694e-14 -7.35506e-14 -7.20097e-14 -52.1532 16.9112 -30.2127 27.7764 -29.3043 -65.9571 5.4028 -53.1511 10.7956 -8.55077e-10 -2.29986e-08 -7.45858e-10 -1.44051e-09 -3.91463e-08 -1.32507e-09 -8.55084e-10 -2.29986e-08 -7.45851e-10 -7.73091 5.47488 -0.417314 -8.5508e-10 -2.29986e-08 -7.4585e-10 -2.90554 0.965183 -0.102902 -8.55083e-10 -2.29986e-08 -7.45852e-10 -10.2786 0.731801 -0.0259123 -8.5507e-10 -2.29986e-08 -7.4586e-10 -2.22167 -0.733487 0.20892 -2.03217e-16 0.0 -3.88251e-19 -94.1113 -37.5739 -70.1137 9.47079 53.4282 57.7712 173.296 3.05144 -123.631 2.03217e-16 0.0 3.88251e-19 98.6154 -35.5567 92.9433 0.963562 55.017 -0.682947 169.795 -39.1361 168.414
47.2738 42.1815 71.0848 4.1849 -1.4613 -0.359 0.429127 31.5254 -5.13595 1.15572 -4.28668 -1.38198 -3.74602 22.1397 10.7792 8.5474 -54.1841 27.09 -0.0 0.0 0.0 -0.0 0.0 0.0 -1.43968e-13 -1.08486e-13 -7.14751e-14 12.7454 61.6091 31.9545 -12.6003 -57.3584 130.223 -3.06099 -43.4703 -7.65954 6.57066e-10 6.51314e-10 -1.17901e-10 1.13912e-09 1.05963e-09 -1.76611e-10 6.57068e-10 6.51318e-10 -1.17909e-10 7.73091 5.47488 0.417314 6.57063e-10 6.51315e-10 -1.17905e-10 2.90554 0.965183 0.102902 6.57071e-10 6.51314e-10 -1.17903e-10 10.2786 0.731801 0.0259123 6.57058e-10 6.51314e-10 -1.17895e-10 2.22167 -0.733487 -0.20892 -1.43924e-13 -1.08487e-13 -7.16805e-14 -50.9117 16.4879 -27.0121 28.1518 -31.6174 -69.679 6.36286 -55.9031 11.9727 -1.17924e-09 -3.4501e-08 -6.19243e-10 -2.00127e-09 -5.88654e-08 -1.12029e-09 -1.17924e-09 -3.4501e-08 -6.19235e-10 -7.73091 5.47488 -0.417314 -1.17924e-09 -3.4501e-08 -6.19236e-10 -2.90554 0.965183 -0.102902 -1.17924e-09 -3.4501e-08 -6.19236e-10 -10.2786 0.731801 -0.0259123 -1.17923e-09 -3.4501e-08 -6.19246e-10 -2.22167 -0.733487 0.20892 -2.03217e-16 0.0 -3.88251e-19 -94.4466 -38.3074 -70.2522 9.39641 54.8362 50.8014 173.804 4.16179 -129.36 2.03217e-16 0.0 3.88251e-19 97.9988 -36.1967 92.4254 0.956098 56.2468 -1.11742 169.684 -35.9593 167.125
47.4096 42.6771 71.1433 4.3282 -1.0656 0.1871 0.252357 30.7804 -5.5027 1.30596 -4.53933 -1.49031 -3.34661 21.8501 10.793 7.92701 -53.2874 26.7011 -0.0 0.0 0.0 -0.0 0.0 0.0 -2.23453e-13 -1.145e-13 -7.78242e-14 9.19161 64.4182 33.623 -11.1292 -58.0012 132.957 -3.09813 -43.696 -7.71729 8.41149e-10 6.66776e-10 -2.5731e-10 1.4615e-09 1.05877e-09 -4.09108e-10 8.41149e-10 6.66781e-10 -2.57316e-10 7.73091 5.47488 0.417314 8.41145e-10 6.66779e-10 -2.57313e-10 2.90554 0.965183 0.102902 8.41151e-10 6.66777e-10 -2.57312e-10 10.2786 0.731801 0.0259123 8.4114e-10 6.66777e-10 -2.57304e-10 2.22167 -0.733487 -0.20892 -2.23429e-13 -1.145e-13 -7.8023e-14 -49.2749 16.5986 -24.3359 28.3692 -33.7506 -73.2921 7.43113 -58.4629 13.2387 -1.42099e-09 -3.97595e-08 -5.47615e-10 -2.4173e-09 -6.79532e-08 -1.00675e-09 -1.421e-09 -3.97595e-08 -5.47606e-10 -7.73091 5.47488 -0.417314 -1.42099e-09 -3.97595e-08 -5.47609e-10 -2.90554 0.965183 -0.102902 -1.421e-09 -3.97595e-08 -5.47608e-10 -10.2786 0.731801 -0.0259123 -1.42099e-09 -3.97595e-08 -5.47618e-10 -2.22167 -0.733487 0.20892 -2.03217e-16 0.0 -3.88251e-19 -94.6783 -38.9709 -70.4317 8.94812 56.2352 44.6096 174.283 5.36344 -134.661 2.03217e-16 0.0 3.88251e-19 97.523 -36.8827 91.9364 0.837455 57.5305 -1.70198 169.713 -32.6934 165.784
47.5238 43.1218 71.1828 4.3581 -0.675 0.7831 0.126464 29.989 -5.63976 1.3936 -4.74318 -1.53368 -2.90306 21.5633 10.6634 7.57419 -52.6505 26.1988 -0.0 0.0 0.0 -0.0 0.0 0.0 -2.73345e-13 -7.28787e-14 -1.02386e-13 12.774 64.2962 28.7504 -11.0306 -57.9068 133.214 -3.24449 -44.4587 -7.92724 8.82876e-10 5.15048e-10 -2.2505e-10 1.53351e-09 7.55473e-10 -3.5138e-10 8.82876e-10 5.15052e-10 -2.25055e-10 7.73091 5.47488 0.417314 8.82873e-10 5.15053e-10 -2.25053e-10 2.90554 0.965183 0.102902 8.82879e-10 5.15049e-10 -2.25053e-10 10.2786 0.731801 0.0259123 8.82869e-10 5.15049e-10 -2.25047e-10 2.22167 -0.733487 -0.20892 -2.73353e-13 -7.28804e-14 -1.02595e-13 -47.3318 17.3044 -22.0862 28.4414 -35.7964 -76.7873 8.66977 -60.9841 14.6722 -1.58517e-09 -3.55127e-08 -5.67523e-10 -2.69427e-09 -6.08877e-08 -1.04763e-09 -1.58517e-09 -3.55127e-08 -5.67514e-10 -7.73091 5.47488 -0.417314 -1.58517e-09 -3.55127e-08 -5.67519e-10 -2.90554 0.965183 -0.102902 -1.58518e-09 -3.55127e-08 -5.67518e-10 -10.2786 0.731801 -0.0259123 -1.58517e-09 -3.55127e-08 -5.67527e-10 -2.22167 -0.733487 0.20892 -2.03217e-16 0.0 -3.88251e-19 -94.7841 -39.5803 -70.666 7.96198 58.1357 39.4801 174.694 6.6175 -139.546 2.03217e-16 0.0 3.88251e-19 97.2639 -37.6113 91.5046 0.92237 58.8292 -2.33385 170.143 -29.2455 164.947
47.6297 43.5156 71.2124 4.299 -0.2576 1.4047 0.0273977 29.1534 -5.58575 1.43451 -4.9145 -1.52306 -2.41882 21.2631 10.4191 7.43365 -52.1787 25.6001 -0.0 0.0 0.0 -0.0 0.0 0.0 -3.08561e-13 2.00974e-16 -1.39774e-13 20.1504 61.5311 20.3704 -12.1058 -57.4508 131.181 -3.44799 -45.4562 -8.21259 8.43092e-10 -7.14834e-12 -1.02515e-10 1.46239e-09 -1.99903e-10 -1.41278e-10 8.43093e-10 -7.1482e-12 -1.02519e-10 7.73091 5.47488 0.417314 8.4309e-10 -7.14087e-12 -1.02519e-10 2.90554 0.965183 0.102902 8.43095e-10 -7.14931e-12 -1.0252e-10 10.2786 0.731801 0.0259123 8.43086e-10 -7.14728e-12 -1.02516e-10 2.22167 -0.733487 -0.20892 -3.08611e-13 1.96278e-16 -1.40003e-13 -45.2371 18.5759 -20.1141 28.3293 -37.8946 -80.3583 10.1493 -63.4907 16.3469 -1.70419e-09 -2.51073e-08 -6.19549e-10 -2.89067e-09 -4.33682e-08 -1.14179e-09 -1.70419e-09 -2.51073e-08 -6.19539e-10 -7.73091 5.47488 -0.417314 -1.70419e-09 -2.51073e-08 -6.19548e-10 -2.90554 0.965183 -0.102902 -1.7042e-09 -2.51073e-08 -6.19547e-10 -10.2786 0.731801 -0.0259123 -1.70419e-09 -2.51073e-08 -6.19554e-10 -2.22167 -0.733487 0.20892 -2.03217e-16 0.0 -3.88251e-19 -94.8363 -40.1619 -71.0067 6.97404 60.3134 33.953 175.238 8.09805 -144.878 2.03217e-16 0.0 3.88251e-19 97.1538 -38.4008 91.1209 1.1577 60.1383 -3.0652 170.838 -25.4237 164.269
